# xmcd CD database file
# Copyright (C) 1993-1996 Ti Kan
#
# Track frame offsets:
#	150
#	11480
#	22115
#	34190
#	44550
#	51337
#	60062
#	69937
#	78605
#	90407
#	101550
#	112250
#	120862
#	131202
#
# Disc length: 1886 seconds
#
# Revision: 1
# Processed by: cddbd v1.4b41PL1 Copyright (c) Steve Scherf et al.
# Submitted via: CDValet v3.30 - Copyright (c) 1997 Greg Leichner
#
DISCID=b6075c0e
DTITLE=Waylon Jennings - Thanks To Buddy
DYEAR=1900
DGENRE=
TTITLE0=Sally Was A Good Old Girl
TTITLE1=Burning Memories
TTITLE2=Don't Think Twice, It's Alright
TTITLE3=White Lightning
TTITLE4=It's So Easy
TTITLE5=Jole Blon
TTITLE6=When Sin Stops
TTITLE7=Love's Gonna Live Here Again
TTITLE8=Crying
TTITLE9=Big Mamou
TTITLE10=Dream baby
TTITLE11=Abilene
TTITLE12=Lorena
TTITLE13=Money (That's What I Want)
EXTD=
EXTT0=
EXTT1=
EXTT2=
EXTT3=
EXTT4=
EXTT5=
EXTT6=
EXTT7=
EXTT8=
EXTT9=
EXTT10=
EXTT11=
EXTT12=
EXTT13=
PLAYORDER=
